<svg width="32" height="32" xmlns="http://www.w3.org/2000/svg">
 <title/>

 <g>
  <title>background</title>
  <rect fill="none" id="canvas_background" height="34" width="34" y="-1" x="-1"/>
 </g>
 <g>
  <title>Layer 1</title>
  <path fill="#fc7418" id="svg_1" d="m16.068493,2l-13,4.28l0,5.72c0,14.61 12.63,17.94 12.76,18l0.24,0l0.24,-0.06c0.13,0 12.76,-3.36 12.76,-18l0,-5.66l-13,-4.28zm11,10c0,12.1 -9.31,15.45 -11,16c-1.69,-0.55 -11,-3.9 -11,-16l0,-4.28l11,-3.67l11,3.67l0,4.28z"/>
  <path id="svg_2" d="m11.59,15l-1.42,1.41l2.29,2.29a2,2 0 0 0 1.42,0.59a2,2 0 0 0 1.41,-0.59l6.54,-6.53l-1.42,-1.42l-6.53,6.54l-2.29,-2.29z"/>
 </g>
</svg>